<svg xmlns="http://www.w3.org/2000/svg" xmlns:xlink="http://www.w3.org/1999/xlink" aria-hidden="true" role="img" class="iconify iconify--logos" width="32" height="32" preserveAspectRatio="xMidYMid meet" viewBox="0 0 256 257">
  <defs>
    <linearGradient id="IconifyId1813088fe1fbc01fb466" x1="-13.818%" x2="68.245%" y1="33.497%" y2="76.89%">
      <stop offset="0%" stop-color="#41D1FF"></stop>
      <stop offset="100%" stop-color="#BD34FE"></stop>
    </linearGradient>
    <linearGradient id="IconifyId1813088fe1fbc01fb467" x1="43.376%" x2="50.316%" y1="2.242%" y2="89.03%">
      <stop offset="0%" stop-color="#FFEA83"></stop>
      <stop offset="8.333%" stop-color="#FFDD35"></stop>
      <stop offset="100%" stop-color="#FFA800"></stop>
    </linearGradient>
  </defs>
  <path fill="url(#IconifyId1813088fe1fbc01fb466)" d="M255.153 37.938L134.897 252.976c-2.499 4.463-8.907 4.466-11.41.006L.9 37.958c-2.765-4.85 1.389-10.8 6.936-9.933l120.448 18.804a6.52 6.52 0 0 0 2.009 0l117.852-18.787c5.541-.883 9.708 5.058 7.008 9.896Z"></path>
  <path fill="url(#IconifyId1813088fe1fbc01fb467)" d="M185.432.063L96.44 17.548a3.26 3.26 0 0 0-2.63 2.585L88.353 53.17a3.26 3.26 0 0 0 3.777 3.68l24.75-4.72c2.316-.442 4.41 1.593 3.963 3.91l-7.35 38.145c-.495 2.572 1.923 4.759 4.463 4.038l15.293-4.346c2.54-.721 4.958 1.466 4.463 4.038l-11.678 60.59c-.73 3.785 4.307 5.847 6.457 2.645l1.437-2.14l72.523-144.82c1.214-2.426-.884-5.26-3.56-4.735Z"></path>
</svg>